<svg width="40" height="40" viewBox="0 0 40 40" fill="none" xmlns="http://www.w3.org/2000/svg">
<rect x="0.5" y="0.5" width="39" height="39" rx="7.5" stroke="#E5E7EB"/>
<rect x="3.99998" y="3.99998" width="32" height="32" rx="4" fill="#F1F3F5"/>
<path d="M20.0004 24.5883V20.5728M20.0004 20.5728C20.3874 20.5731 20.7728 20.5246 21.1476 20.4283M20.0004 20.5728C19.6134 20.5731 19.2279 20.5246 18.8531 20.4283M21.7213 26.1479C20.5842 26.3638 19.4166 26.3638 18.2794 26.1479M21.1476 27.9705C20.3849 28.0504 19.6159 28.0504 18.8531 27.9705M21.7213 24.5883V24.4415C21.7213 23.6896 22.2246 23.0471 22.8747 22.6701C23.9669 22.0376 24.82 21.0625 25.3019 19.896C25.7837 18.7294 25.8674 17.4366 25.54 16.2176C25.2125 14.9987 24.4922 13.9218 23.4906 13.1538C22.489 12.3858 21.2621 11.9696 20 11.9696C18.7378 11.9696 17.5109 12.3858 16.5094 13.1538C15.5078 13.9218 14.7875 14.9987 14.46 16.2176C14.1326 17.4366 14.2162 18.7294 14.6981 19.896C15.1799 21.0625 16.0331 22.0376 17.1253 22.6701C17.7754 23.0471 18.2794 23.6896 18.2794 24.4415V24.5883" stroke="#4B5563" stroke-width="1.5" stroke-linecap="round" stroke-linejoin="round"/>
</svg>
