<svg width="40" height="40" viewBox="0 0 40 40" fill="none" xmlns="http://www.w3.org/2000/svg">
<rect x="0.5" y="0.5" width="39" height="39" rx="7.5" stroke="#E5E7EB"/>
<rect x="3.99998" y="4" width="32" height="32" rx="4" fill="#F1F3F5"/>
<path d="M24.7189 15.875C25.6509 15.875 26.4064 15.1195 26.4064 14.1875C26.4064 13.2555 25.6509 12.5 24.7189 12.5C23.7869 12.5 23.0314 13.2555 23.0314 14.1875C23.0314 15.1195 23.7869 15.875 24.7189 15.875Z" stroke="#4B5563" stroke-width="1.5" stroke-linecap="round" stroke-linejoin="round"/>
<path d="M24.7189 21.6875C25.6509 21.6875 26.4064 20.932 26.4064 20C26.4064 19.068 25.6509 18.3125 24.7189 18.3125C23.7869 18.3125 23.0314 19.068 23.0314 20C23.0314 20.932 23.7869 21.6875 24.7189 21.6875Z" stroke="#4B5563" stroke-width="1.5" stroke-linecap="round" stroke-linejoin="round"/>
<path d="M14.5936 21.6875C15.5256 21.6875 16.2811 20.932 16.2811 20C16.2811 19.068 15.5256 18.3125 14.5936 18.3125C13.6616 18.3125 12.9061 19.068 12.9061 20C12.9061 20.932 13.6616 21.6875 14.5936 21.6875Z" stroke="#4B5563" stroke-width="1.5" stroke-linecap="round" stroke-linejoin="round"/>
<path d="M24.7189 27.5C25.6509 27.5 26.4064 26.7445 26.4064 25.8125C26.4064 24.8805 25.6509 24.125 24.7189 24.125C23.7869 24.125 23.0314 24.8805 23.0314 25.8125C23.0314 26.7445 23.7869 27.5 24.7189 27.5Z" stroke="#4B5563" stroke-width="1.5" stroke-linecap="round" stroke-linejoin="round"/>
<path d="M23.0307 14.1875H21.1557C20.327 14.1875 19.6557 14.8588 19.6557 15.6875V24.3125C19.6557 25.1413 20.327 25.8125 21.1557 25.8125H23.0307" stroke="#4B5563" stroke-width="1.5" stroke-linecap="round" stroke-linejoin="round"/>
<path d="M23.0301 20H16.2801" stroke="#4B5563" stroke-width="1.5" stroke-linecap="round" stroke-linejoin="round"/>
</svg>
