<svg width="40" height="40" viewBox="0 0 40 40" fill="none" xmlns="http://www.w3.org/2000/svg">
<rect x="0.5" y="0.5" width="39" height="39" rx="7.5" stroke="#E5E7EB"/>
<rect x="3.99998" y="3.99999" width="32" height="32" rx="4" fill="#F1F3F5"/>
<path d="M22.5 16C22.5 16.663 22.2366 17.2989 21.7677 17.7678C21.2989 18.2366 20.663 18.5 20 18.5C19.3369 18.5 18.7011 18.2366 18.2322 17.7678C17.7634 17.2989 17.5 16.663 17.5 16C17.5 15.3369 17.7634 14.7011 18.2322 14.2322C18.7011 13.7634 19.3369 13.5 20 13.5C20.663 13.5 21.2989 13.7634 21.7677 14.2322C22.2366 14.7011 22.5 15.3369 22.5 16ZM15.0006 25.412C15.0221 24.1002 15.5582 22.8494 16.4934 21.9293C17.4287 21.0093 18.688 20.4936 20 20.4936C21.3119 20.4936 22.5713 21.0093 23.5065 21.9293C24.4418 22.8494 24.9779 24.1002 24.9993 25.412C23.4309 26.1312 21.7254 26.5023 20 26.5C18.216 26.5 16.5226 26.1107 15.0006 25.412Z" stroke="#4B5563" stroke-width="1.5" stroke-linecap="round" stroke-linejoin="round"/>
</svg>
