<svg width="40" height="40" viewBox="0 0 40 40" fill="none" xmlns="http://www.w3.org/2000/svg">
<rect x="0.5" y="0.5" width="39" height="39" rx="7.5" stroke="#E5E7EB"/>
<rect x="3.99998" y="4" width="32" height="32" rx="4" fill="#F1F3F5"/>
<path d="M22.7845 21.8383C22.9461 22.5217 22.9508 23.2328 22.7985 23.9182C22.6461 24.6037 22.3407 25.2459 21.9049 25.7965C21.4691 26.3472 20.9144 26.7921 20.2823 27.098C19.6502 27.4038 18.957 27.5626 18.2548 27.5625V23.8394M22.7845 21.8383C24.2659 20.7592 25.471 19.345 26.3014 17.7111C27.1318 16.0773 27.5639 14.2702 27.5625 12.4375C25.7299 12.4362 23.923 12.8684 22.2893 13.6987C20.6556 14.5291 19.2415 15.7342 18.1625 17.2155M22.7853 21.8383C21.4372 22.8243 19.8917 23.507 18.2548 23.8394M18.1625 17.2155C17.4791 17.0538 16.7679 17.0489 16.0823 17.2012C15.3967 17.3535 14.7544 17.659 14.2037 18.0947C13.6529 18.5305 13.2079 19.0853 12.9021 19.7175C12.5962 20.3497 12.4374 21.0429 12.4375 21.7452H16.1606M18.1625 17.2155C17.1766 18.5634 16.4939 20.1086 16.1614 21.7452M18.2548 23.8394C18.1749 23.8557 18.0942 23.8712 18.0136 23.886C17.3099 23.328 16.6728 22.6909 16.1148 21.9872C16.1295 21.9064 16.145 21.8257 16.1614 21.7452M14.4239 23.599C13.9137 23.9784 13.517 24.4902 13.2768 25.0789C13.0365 25.6676 12.962 26.3108 13.0611 26.9389C13.6893 27.0379 14.3325 26.9632 14.9212 26.7229C15.51 26.4825 16.0217 26.0857 16.401 25.5753M23.4904 17.6731C23.4904 17.9816 23.3678 18.2776 23.1496 18.4958C22.9314 18.714 22.6355 18.8365 22.3269 18.8365C22.0184 18.8365 21.7224 18.714 21.5042 18.4958C21.286 18.2776 21.1635 17.9816 21.1635 17.6731C21.1635 17.3645 21.286 17.0686 21.5042 16.8504C21.7224 16.6322 22.0184 16.5096 22.3269 16.5096C22.6355 16.5096 22.9314 16.6322 23.1496 16.8504C23.3678 17.0686 23.4904 17.3645 23.4904 17.6731Z" stroke="#4B5563" stroke-width="1.5" stroke-linecap="round" stroke-linejoin="round"/>
</svg>
