<svg width="40" height="40" viewBox="0 0 40 40" fill="none" xmlns="http://www.w3.org/2000/svg">
<rect x="0.5" y="0.5" width="39" height="39" rx="7.5" stroke="#E5E7EB"/>
<rect x="3.99998" y="3.99999" width="32" height="32" rx="4" fill="#F1F3F5"/>
<path d="M26.875 17.0925C27.6117 17.3292 28.125 18.0325 28.125 18.84V22.4117C28.125 23.3583 27.4192 24.1617 26.475 24.2392C26.1917 24.2617 25.9083 24.2825 25.625 24.2992V26.875L23.125 24.375C21.9967 24.375 20.88 24.3292 19.775 24.2392C19.5344 24.2197 19.3004 24.1511 19.0875 24.0375M26.875 17.0925C26.7462 17.051 26.6131 17.0245 26.4783 17.0133C24.2466 16.8281 22.0034 16.8281 19.7717 17.0133C18.8292 17.0917 18.125 17.8942 18.125 18.84V22.4117C18.125 23.1092 18.5083 23.7283 19.0875 24.0375M26.875 17.0925V15.5308C26.875 14.18 25.915 13.0092 24.575 12.835C22.8507 12.6115 21.1137 12.4996 19.375 12.5C17.6125 12.5 15.8767 12.6142 14.175 12.835C12.835 13.0092 11.875 14.18 11.875 15.5308V20.7192C11.875 22.07 12.835 23.2408 14.175 23.415C14.6558 23.4775 15.1392 23.5317 15.625 23.5767V27.5L19.0875 24.0375" stroke="#4B5563" stroke-width="1.5" stroke-linecap="round" stroke-linejoin="round"/>
</svg>
