<svg width="40" height="40" viewBox="0 0 40 40" fill="none" xmlns="http://www.w3.org/2000/svg">
<rect x="0.5" y="0.5" width="39" height="39" rx="7.5" stroke="#E5E7EB"/>
<rect x="3.99998" y="3.99999" width="32" height="32" rx="4" fill="#F1F3F5"/>
<path d="M18.1829 14.1806L18.1828 14.181C18.1262 14.5208 17.8879 14.7991 17.5771 14.9493L17.5758 14.95C17.32 15.073 17.0739 15.2152 16.8396 15.3755L16.4725 14.8392L16.8427 15.3735C16.5508 15.5756 16.1901 15.6359 15.8716 15.5178L15.8689 15.5168L15.8689 15.5168L15.022 15.1987C15.0218 15.1986 15.0217 15.1986 15.0216 15.1985C14.8194 15.1229 14.5968 15.1214 14.3936 15.1943C14.1902 15.2673 14.0193 15.4101 13.9114 15.5973L13.9113 15.5975L13.1429 16.9283L13.1429 16.9283C13.0349 17.1154 12.9968 17.3347 13.0353 17.5472C13.0738 17.7597 13.1864 17.9517 13.3532 18.089L13.3533 18.0891L14.0525 18.6651C14.0526 18.6652 14.0527 18.6654 14.0529 18.6655C14.3153 18.8812 14.444 19.2234 14.4164 19.5757C14.3952 19.8588 14.3952 20.1431 14.4165 20.4263L14.4165 20.4264C14.4425 20.7732 14.3179 21.1161 14.0559 21.3335L14.0538 21.3353L13.3532 21.9118C13.3531 21.9118 13.3531 21.9119 13.353 21.9119C13.1863 22.0492 13.0738 22.2411 13.0353 22.4536C12.9968 22.6661 13.0349 22.8854 13.1429 23.0725L13.1429 23.0725L13.9112 24.4033C14.0193 24.5904 14.1902 24.733 14.3935 24.8059C14.5969 24.8788 14.8195 24.8772 15.0218 24.8014L15.0218 24.8014L15.871 24.483L15.8715 24.4828C16.1931 24.3626 16.552 24.4278 16.8384 24.6217L16.8418 24.624C17.0748 24.7838 17.3201 24.9261 17.5761 25.0489L17.5779 25.0498C17.8896 25.2005 18.1275 25.4794 18.1838 25.8205L18.1837 25.8201L18.1829 14.1806ZM18.1829 14.1806L18.3311 13.2879C18.3311 13.2878 18.3311 13.2877 18.3312 13.2876C18.4048 12.8475 18.7855 12.525 19.2317 12.525H19.2325H20.7683L20.7685 12.525C20.9846 12.5249 21.1936 12.6016 21.3585 12.7412C21.5234 12.8809 21.6333 13.0745 21.6688 13.2876L21.6689 13.2879M18.1829 14.1806L21.6689 13.2879M18.3319 26.7121L18.1839 25.8215L18.3319 26.7121ZM18.3319 26.7121C18.4055 27.1524 18.7863 27.475 19.2325 27.475H20.7692C21.2148 27.475 21.5962 27.1522 21.6697 26.7121M18.3319 26.7121H21.6697M21.6697 26.7121L21.8179 25.8194L21.818 25.819C21.8744 25.4808 22.1103 25.2022 22.4224 25.0505L22.4256 25.0489L22.4256 25.0489C22.6816 24.9261 22.9268 24.7838 23.1598 24.624L23.161 24.6231C23.4509 24.4253 23.8108 24.3634 24.1301 24.4828L24.1305 24.4829L24.98 24.8011C24.9801 24.8011 24.9802 24.8012 24.9804 24.8012C24.9804 24.8013 24.9804 24.8013 24.9805 24.8013C25.1825 24.8766 25.4048 24.878 25.6078 24.8051C25.8109 24.7321 25.9816 24.5895 26.0896 24.4025L26.0897 24.4022L26.8588 23.0717C26.9667 22.8846 27.0049 22.6653 26.9664 22.4528C26.9279 22.2402 26.8153 22.0482 26.6485 21.911L26.6484 21.9108L25.9492 21.3349C25.949 21.3347 25.9488 21.3346 25.9486 21.3344C25.6864 21.1187 25.5577 20.7766 25.5852 20.4244C25.6064 20.1412 25.6064 19.8568 25.5852 19.5736L26.2333 19.525M21.6697 26.7121L22.4248 14.9499C22.6803 15.0728 22.9262 15.2151 23.1601 15.3754L23.161 15.376C23.4471 15.5713 23.8074 15.6383 24.1303 15.5168C24.1306 15.5167 24.1308 15.5166 24.1311 15.5165L24.9796 15.1987L24.9799 15.1986C25.1822 15.1228 25.4048 15.1212 25.6081 15.194C25.8115 15.2669 25.9824 15.4096 26.0904 15.5967L26.8584 16.927C27.0818 17.3146 26.9923 17.8049 26.6481 18.0879L26.6475 18.0883L25.9475 18.665L25.9458 18.6664C25.6857 18.8823 25.5573 19.2249 25.5854 19.5768L26.2333 19.525M26.2333 19.525C26.22 19.3583 26.2825 19.2317 26.3608 19.1667L26.3617 20.8325C26.2825 20.7675 26.22 20.6417 26.2333 20.4742C26.257 20.1582 26.257 19.8409 26.2333 19.525ZM21.6689 13.2879L21.8179 14.1802L21.6689 13.2879ZM20 23.775C21.0012 23.775 21.9614 23.3773 22.6693 22.6693C23.3773 21.9614 23.775 21.0012 23.775 20C23.775 18.9988 23.3773 18.0386 22.6693 17.3307C21.9614 16.6227 21.0012 16.225 20 16.225C18.9988 16.225 18.0386 16.6227 17.3307 17.3307C16.6227 18.0386 16.225 18.9988 16.225 20C16.225 21.0012 16.6227 21.9614 17.3307 22.6693C18.0386 23.3773 18.9988 23.775 20 23.775Z" stroke="#4B5563" stroke-width="1.3"/>
</svg>
