<svg width="40" height="40" viewBox="0 0 40 40" fill="none" xmlns="http://www.w3.org/2000/svg">
<rect x="0.5" y="0.5" width="39" height="39" rx="7.5" stroke="#E5E7EB"/>
<rect x="3.99998" y="3.99999" width="32" height="32" rx="4" fill="#F1F3F5"/>
<path d="M24.2158 22.9342C24.6056 22.6679 25.0629 22.5175 25.5346 22.5004C26.0063 22.4832 26.4733 22.5999 26.8815 22.837C27.2897 23.0741 27.6224 23.422 27.8411 23.8403C28.0598 24.2586 28.1556 24.7303 28.1175 25.2008C27.1176 25.5503 26.0556 25.6862 25 25.6C24.9967 24.6555 24.7247 23.7306 24.2158 22.935C23.7641 22.2265 23.1409 21.6434 22.404 21.2396C21.6671 20.8358 20.8402 20.6244 20 20.625C19.1598 20.6246 18.3332 20.836 17.5964 21.2398C16.8597 21.6435 16.2366 22.2266 15.785 22.935M24.9991 25.5992L25 25.625C25 25.8125 24.99 25.9975 24.9691 26.18C23.4569 27.0476 21.7434 27.5028 20 27.5C18.1916 27.5 16.4941 27.02 15.0308 26.18C15.0094 25.9871 14.9991 25.7932 15 25.5992M15 25.5992C13.9447 25.6885 12.8832 25.5531 11.8841 25.2017C11.8461 24.7313 11.942 24.2597 12.1607 23.8416C12.3794 23.4234 12.7119 23.0757 13.12 22.8386C13.528 22.6015 13.9948 22.4847 14.4664 22.5018C14.938 22.5188 15.3951 22.669 15.785 22.935M15 25.5992C15.003 24.6548 15.2763 23.7307 15.785 22.935M22.5 15.625C22.5 16.288 22.2366 16.9239 21.7677 17.3928C21.2989 17.8616 20.663 18.125 20 18.125C19.3369 18.125 18.701 17.8616 18.2322 17.3928C17.7634 16.9239 17.5 16.288 17.5 15.625C17.5 14.9619 17.7634 14.3261 18.2322 13.8572C18.701 13.3884 19.3369 13.125 20 13.125C20.663 13.125 21.2989 13.3884 21.7677 13.8572C22.2366 14.3261 22.5 14.9619 22.5 15.625ZM27.5 18.125C27.5 18.3712 27.4515 18.615 27.3572 18.8425C27.263 19.07 27.1249 19.2767 26.9508 19.4508C26.7767 19.6249 26.57 19.763 26.3425 19.8573C26.115 19.9515 25.8712 20 25.625 20C25.3787 20 25.1349 19.9515 24.9074 19.8573C24.68 19.763 24.4733 19.6249 24.2991 19.4508C24.125 19.2767 23.9869 19.07 23.8927 18.8425C23.7985 18.615 23.75 18.3712 23.75 18.125C23.75 17.6277 23.9475 17.1508 24.2991 16.7992C24.6508 16.4475 25.1277 16.25 25.625 16.25C26.1223 16.25 26.5992 16.4475 26.9508 16.7992C27.3024 17.1508 27.5 17.6277 27.5 18.125ZM16.25 18.125C16.25 18.3712 16.2015 18.615 16.1072 18.8425C16.013 19.07 15.8749 19.2767 15.7008 19.4508C15.5267 19.6249 15.32 19.763 15.0925 19.8573C14.865 19.9515 14.6212 20 14.375 20C14.1287 20 13.8849 19.9515 13.6574 19.8573C13.43 19.763 13.2233 19.6249 13.0491 19.4508C12.875 19.2767 12.7369 19.07 12.6427 18.8425C12.5485 18.615 12.5 18.3712 12.5 18.125C12.5 17.6277 12.6975 17.1508 13.0491 16.7992C13.4008 16.4475 13.8777 16.25 14.375 16.25C14.8723 16.25 15.3492 16.4475 15.7008 16.7992C16.0524 17.1508 16.25 17.6277 16.25 18.125Z" stroke="#4B5563" stroke-width="1.5" stroke-linecap="round" stroke-linejoin="round"/>
</svg>
