<svg width="40" height="40" viewBox="0 0 40 40" fill="none" xmlns="http://www.w3.org/2000/svg">
<rect x="0.5" y="0.5" width="39" height="39" rx="7.5" stroke="#E5E7EB"/>
<rect x="3.99998" y="4" width="32" height="32" rx="4" fill="#F1F3F5"/>
<path d="M12.4921 20.5775V20C12.4921 19.5405 12.6746 19.0998 12.9996 18.7749C13.3245 18.4499 13.7652 18.2674 14.2247 18.2674H25.7753C26.2348 18.2674 26.6755 18.4499 27.0004 18.7749C27.3253 19.0998 27.5079 19.5405 27.5079 20V20.5775M20.8162 15.6185L19.1837 13.986C19.0765 13.8786 18.9491 13.7934 18.809 13.7353C18.6688 13.6771 18.5185 13.6472 18.3667 13.6472H14.2247C13.7652 13.6472 13.3245 13.8297 12.9996 14.1546C12.6746 14.4795 12.4921 14.9202 12.4921 15.3797V24.6202C12.4921 25.0797 12.6746 25.5204 12.9996 25.8454C13.3245 26.1703 13.7652 26.3528 14.2247 26.3528H25.7753C26.2348 26.3528 26.6755 26.1703 27.0004 25.8454C27.3253 25.5204 27.5079 25.0797 27.5079 24.6202V17.6899C27.5079 17.2304 27.3253 16.7897 27.0004 16.4647C26.6755 16.1398 26.2348 15.9573 25.7753 15.9573H21.6332C21.327 15.957 21.0326 15.8351 20.8162 15.6185Z" stroke="#4B5563" stroke-width="1.5" stroke-linecap="round" stroke-linejoin="round"/>
</svg>
